<svg xmlns="http://www.w3.org/2000/svg" height="31" viewBox="0 96 960 960" fill='#fff' width="31"><path d="m722.922 490.461-35.383-36.614 77.538-76.307 35.383 35.383-77.538 77.538ZM90.001 881.127v-50.254h779.998v50.254H90.001Zm364.872-500.511V272.924h50.254v107.692h-50.254ZM237.077 489.641l-76.717-77.948 35.384-35.384 77.948 77.948-36.615 35.384Zm45.718 176.103h394.41q-21.102-62.513-74.628-101Q549.051 526.256 480 526.256q-69.051 0-122.577 38.488-53.526 38.487-74.628 101Zm-60.486 50.255Q229.233 614 303.232 545.001q74-69 176.768-69t176.768 69Q730.767 614 737.691 715.999H222.309ZM480 665.744Z"/></svg>